<svg width="200" height="200" viewBox="0 0 200 200" fill="none" xmlns="http://www.w3.org/2000/svg">
<rect width="200" height="200" rx="99" fill="black"/>
<path d="M124.763 81.1719C124.017 78.5795 122.969 76.2891 121.62 74.3004C120.27 72.2763 118.619 70.5717 116.666 69.1868C114.748 67.7663 112.547 66.6832 110.061 65.9375C107.611 65.1918 104.894 64.8189 101.911 64.8189C96.3357 64.8189 91.4351 66.2038 87.2093 68.9737C83.0189 71.7436 79.7519 75.7741 77.4081 81.0653C75.0644 86.321 73.8925 92.7486 73.8925 100.348C73.8925 107.947 75.0466 114.411 77.3548 119.737C79.6631 125.064 82.9301 129.13 87.156 131.935C91.3818 134.705 96.3712 136.09 102.124 136.09C107.344 136.09 111.801 135.167 115.494 133.32C119.223 131.438 122.064 128.793 124.017 125.384C126.005 121.974 127 117.944 127 113.292L131.687 113.984H103.562V96.6193H149.212V110.362C149.212 119.95 147.188 128.189 143.14 135.078C139.091 141.932 133.516 147.223 126.414 150.952C119.312 154.645 111.179 156.491 102.017 156.491C91.7902 156.491 82.8058 154.237 75.0644 149.727C67.3229 145.181 61.286 138.736 56.9536 130.391C52.6567 122.01 50.5083 112.067 50.5083 100.561C50.5083 91.7187 51.7867 83.8352 54.3435 76.9105C56.9358 69.9503 60.558 64.0554 65.21 59.2259C69.8619 54.3963 75.2774 50.7209 81.4564 48.1996C87.6354 45.6783 94.3293 44.4176 101.538 44.4176C107.717 44.4176 113.47 45.3232 118.797 47.1342C124.123 48.9098 128.846 51.4311 132.966 54.6982C137.12 57.9652 140.512 61.8537 143.14 66.3636C145.767 70.8381 147.454 75.7741 148.2 81.1719H124.763Z" fill="white"/>
</svg>
