<svg width="200" height="200" viewBox="0 0 200 200" fill="none" xmlns="http://www.w3.org/2000/svg">
<rect width="200" height="200" rx="99" fill="black"/>
<path d="M52.5791 100.29V93.4375C56.5109 93.4375 59.2382 92.6534 60.7609 91.0852C62.2836 89.517 63.045 86.9829 63.045 83.4829V75.9488C63.045 71.7443 63.6246 68.3806 64.7836 65.8579C65.9655 63.3125 67.6018 61.392 69.6927 60.0965C71.8064 58.8011 74.3064 57.9375 77.1927 57.5056C80.0791 57.0738 83.2382 56.8579 86.67 56.8579V67.6988C83.9882 67.6988 81.9427 68.0511 80.5336 68.7556C79.1473 69.4375 78.2041 70.5056 77.7041 71.9602C77.2041 73.392 76.9541 75.2102 76.9541 77.4147V87.3693C76.9541 89.0965 76.6359 90.7443 75.9996 92.3125C75.3632 93.8579 74.1814 95.2329 72.4541 96.4375C70.7268 97.6193 68.2609 98.5625 65.0564 99.267C61.8518 99.9488 57.6927 100.29 52.5791 100.29ZM86.67 143.142C83.2382 143.142 80.0791 142.926 77.1927 142.494C74.3064 142.062 71.8064 141.199 69.6927 139.903C67.6018 138.608 65.9655 136.687 64.7836 134.142C63.6246 131.619 63.045 128.256 63.045 124.051V116.483C63.045 112.983 62.2836 110.449 60.7609 108.881C59.2382 107.312 56.5109 106.528 52.5791 106.528V99.6761C57.6927 99.6761 61.8518 100.028 65.0564 100.733C68.2609 101.415 70.7268 102.358 72.4541 103.562C74.1814 104.744 75.3632 106.119 75.9996 107.687C76.6359 109.233 76.9541 110.881 76.9541 112.631V122.585C76.9541 124.767 77.2041 126.574 77.7041 128.006C78.2041 129.46 79.1473 130.528 80.5336 131.21C81.9427 131.915 83.9882 132.267 86.67 132.267V143.142ZM52.5791 106.528V93.4375H64.8177V106.528H52.5791Z" fill="white"/>
<path d="M147.42 99.6761V106.528C143.511 106.528 140.784 107.312 139.238 108.881C137.715 110.449 136.954 112.983 136.954 116.483V124.051C136.954 128.256 136.363 131.619 135.181 134.142C134.022 136.687 132.386 138.608 130.272 139.903C128.181 141.199 125.693 142.062 122.806 142.494C119.943 142.926 116.784 143.142 113.329 143.142V132.267C116.011 132.267 118.045 131.915 119.431 131.21C120.84 130.528 121.795 129.46 122.295 128.006C122.795 126.574 123.045 124.767 123.045 122.585V112.631C123.045 110.881 123.363 109.233 124 107.687C124.636 106.119 125.818 104.744 127.545 103.562C129.272 102.358 131.738 101.415 134.943 100.733C138.147 100.028 142.306 99.6761 147.42 99.6761ZM113.329 56.8579C116.784 56.8579 119.943 57.0738 122.806 57.5056C125.693 57.9375 128.181 58.8011 130.272 60.0965C132.386 61.392 134.022 63.3125 135.181 65.8579C136.363 68.3806 136.954 71.7443 136.954 75.9488V83.4829C136.954 86.9829 137.715 89.517 139.238 91.0852C140.784 92.6534 143.511 93.4375 147.42 93.4375V100.29C142.306 100.29 138.147 99.9488 134.943 99.267C131.738 98.5625 129.272 97.6193 127.545 96.4375C125.818 95.2329 124.636 93.8579 124 92.3125C123.363 90.7443 123.045 89.0965 123.045 87.3693V77.4147C123.045 75.2102 122.795 73.392 122.295 71.9602C121.795 70.5056 120.84 69.4375 119.431 68.7556C118.045 68.0511 116.011 67.6988 113.329 67.6988V56.8579ZM147.42 93.4375V106.528H135.181V93.4375H147.42Z" fill="white"/>
</svg>
